<?xml version="1.0" encoding="UTF-8" standalone="no"?><!DOCTYPE svg PUBLIC "-//W3C//DTD SVG 1.1//EN" "http://www.w3.org/Graphics/SVG/1.1/DTD/svg11.dtd"><svg width="100%" height="100%" viewBox="0 0 208 142" version="1.1" xmlns="http://www.w3.org/2000/svg" xmlns:xlink="http://www.w3.org/1999/xlink" xml:space="preserve" xmlns:serif="http://www.serif.com/" style="fill-rule:evenodd;clip-rule:evenodd;stroke-linejoin:round;stroke-miterlimit:1.41421;"><g id="Layer-1" serif:id="Layer 1"><path d="M138.914,71.462l-0.049,0l-2.951,2.088c-0.121,0.098 -0.264,0.049 -0.264,-0.143l0,-1.008c0,-0.167 0.047,-0.265 0.168,-0.361l3.024,-2.183c0.121,-0.096 0.217,-0.145 0.361,-0.145l0.768,0c0.142,0 0.24,0.096 0.24,0.24l0,15.842c0,0.145 -0.098,0.24 -0.24,0.24l-0.817,0c-0.144,0 -0.24,-0.095 -0.24,-0.24l0,-14.33Z" style="fill:#fff;fill-rule:nonzero;"/><path d="M149.498,85.048c1.439,0 2.473,-0.625 2.928,-1.992c0.168,-0.528 0.336,-1.416 0.336,-5.186c0,-3.767 -0.168,-4.656 -0.336,-5.183c-0.455,-1.368 -1.489,-1.993 -2.928,-1.993c-1.439,0 -2.473,0.625 -2.928,1.993c-0.168,0.527 -0.336,1.416 -0.336,5.183c0,3.77 0.168,4.658 0.336,5.186c0.455,1.367 1.489,1.992 2.928,1.992m-4.561,-7.178c0,-3.912 0.168,-4.896 0.362,-5.47c0.623,-1.897 2.135,-2.93 4.199,-2.93c2.064,0 3.576,1.033 4.201,2.93c0.192,0.574 0.36,1.558 0.36,5.47c0,3.914 -0.168,4.897 -0.36,5.473c-0.625,1.896 -2.137,2.93 -4.201,2.93c-2.064,0 -3.576,-1.034 -4.199,-2.93c-0.194,-0.576 -0.362,-1.559 -0.362,-5.473" style="fill:#fff;fill-rule:nonzero;"/><path d="M162.266,85.048c1.439,0 2.473,-0.625 2.928,-1.992c0.168,-0.528 0.336,-1.416 0.336,-5.186c0,-3.767 -0.168,-4.656 -0.336,-5.183c-0.455,-1.368 -1.489,-1.993 -2.928,-1.993c-1.439,0 -2.473,0.625 -2.928,1.993c-0.168,0.527 -0.336,1.416 -0.336,5.183c0,3.77 0.168,4.658 0.336,5.186c0.455,1.367 1.489,1.992 2.928,1.992m-4.561,-7.178c0,-3.912 0.168,-4.896 0.362,-5.47c0.623,-1.897 2.135,-2.93 4.199,-2.93c2.064,0 3.576,1.033 4.201,2.93c0.192,0.574 0.36,1.558 0.36,5.47c0,3.914 -0.168,4.897 -0.36,5.473c-0.625,1.896 -2.137,2.93 -4.201,2.93c-2.064,0 -3.576,-1.034 -4.199,-2.93c-0.194,-0.576 -0.362,-1.559 -0.362,-5.473" style="fill:#fff;fill-rule:nonzero;"/><path d="M75.807,100.608c-0.072,-0.07 -0.107,-0.18 -0.035,-0.27l1.115,-1.296c0.072,-0.09 0.182,-0.09 0.252,-0.018c0.793,0.631 1.963,1.297 3.332,1.297c1.459,0 2.305,-0.738 2.305,-1.764c0,-0.883 -0.541,-1.459 -2.233,-1.693l-0.648,-0.09c-2.359,-0.324 -3.692,-1.459 -3.692,-3.494c0,-2.213 1.622,-3.69 4.141,-3.69c1.531,0 2.99,0.485 3.963,1.223c0.09,0.072 0.107,0.145 0.035,0.254l-0.865,1.332c-0.07,0.09 -0.16,0.107 -0.252,0.053c-0.99,-0.649 -1.908,-0.953 -2.934,-0.953c-1.242,0 -1.927,0.683 -1.927,1.638c0,0.846 0.595,1.422 2.252,1.657l0.648,0.089c2.357,0.325 3.654,1.44 3.654,3.547c0,2.178 -1.566,3.799 -4.609,3.799c-1.801,0 -3.547,-0.721 -4.502,-1.621" style="fill:#fff;fill-rule:nonzero;"/><path d="M90.19,102.032c-0.108,0 -0.181,-0.072 -0.181,-0.18l0,-10.049c0,-0.07 -0.035,-0.107 -0.107,-0.107l-3.205,0c-0.11,0 -0.18,-0.072 -0.18,-0.18l0.001,-1.548c-0.001,-0.108 0.069,-0.18 0.179,-0.18l8.75,0c0.107,0 0.179,0.072 0.179,0.18l0,1.548c0,0.108 -0.072,0.18 -0.179,0.18l-3.205,0c-0.073,0 -0.108,0.037 -0.108,0.107l0,10.049c0,0.108 -0.072,0.18 -0.178,0.18l-1.767,0Z" style="fill:#fff;fill-rule:nonzero;"/><path d="M102.594,97.585l-1.621,-4.754l-0.055,0l-1.637,4.754l3.313,0Zm-2.684,-7.617c0.038,-0.108 0.108,-0.18 0.235,-0.18l1.656,0c0.127,0 0.199,0.072 0.234,0.18l4.141,11.885c0.037,0.107 0,0.179 -0.125,0.179l-1.766,0c-0.125,0 -0.197,-0.054 -0.234,-0.179l-0.809,-2.377l-4.609,0l-0.81,2.377c-0.038,0.125 -0.11,0.179 -0.235,0.179l-1.746,0c-0.127,0 -0.162,-0.072 -0.127,-0.179l4.195,-11.885Z" style="fill:#fff;fill-rule:nonzero;"/><path d="M115.014,93.442c0,-1.062 -0.756,-1.746 -1.873,-1.746l-2.611,0c-0.073,0 -0.108,0.037 -0.108,0.107l0,3.26c0,0.072 0.035,0.108 0.108,0.108l2.611,0c1.117,0 1.873,-0.684 1.873,-1.729m0.234,8.59c-0.144,0 -0.216,-0.055 -0.271,-0.18l-2.34,-4.771l-2.107,0c-0.073,0 -0.108,0.035 -0.108,0.107l0,4.664c0,0.108 -0.072,0.18 -0.179,0.18l-1.766,0c-0.108,0 -0.18,-0.072 -0.18,-0.18l0,-11.885c0,-0.107 0.072,-0.179 0.18,-0.179l4.736,0c2.25,0 3.906,1.494 3.906,3.654c0,1.604 -0.918,2.846 -2.322,3.367l2.574,4.988c0.073,0.125 0,0.235 -0.125,0.235l-1.998,0Z" style="fill:#fff;fill-rule:nonzero;"/><path d="M119.889,89.968c0,-0.108 0.072,-0.181 0.18,-0.181l1.765,0c0.108,0 0.18,0.073 0.18,0.18l0,10.047c0,0.072 0.035,0.109 0.107,0.109l5.62,0.001c0.107,-0.001 0.179,0.07 0.179,0.179l0,1.549c0,0.107 -0.072,0.179 -0.179,0.179l-7.672,0c-0.108,0 -0.18,-0.072 -0.18,-0.179l0,-11.885Z" style="fill:#fff;fill-rule:nonzero;"/><path d="M130.148,89.968c0,-0.108 0.072,-0.181 0.18,-0.181l1.765,0c0.108,0 0.18,0.073 0.18,0.18l0,11.885c0,0.107 -0.072,0.179 -0.18,0.179l-1.765,0c-0.108,0 -0.18,-0.072 -0.18,-0.179l0,-11.885Z" style="fill:#fff;fill-rule:nonzero;"/><path d="M135.422,89.968c0,-0.108 0.072,-0.181 0.18,-0.181l1.656,0c0.144,0 0.234,0.055 0.307,0.18l4.988,8.445l0.072,0l0,-8.445c0,-0.107 0.072,-0.18 0.18,-0.18l1.566,0c0.108,0 0.18,0.073 0.18,0.18l0,11.885c0,0.107 -0.072,0.179 -0.18,0.179l-1.638,0c-0.145,0 -0.235,-0.054 -0.307,-0.179l-5.006,-8.428l-0.07,0l0,8.428c0,0.107 -0.073,0.179 -0.182,0.179l-1.566,0c-0.108,0 -0.18,-0.072 -0.18,-0.179l0,-11.885Z" style="fill:#fff;fill-rule:nonzero;"/><path d="M147.338,95.909c0,-1.926 0.072,-2.609 0.324,-3.367c0.631,-1.944 2.215,-2.951 4.375,-2.951c2.287,0 3.764,1.222 4.268,2.591c0.037,0.09 0.017,0.198 -0.072,0.252l-1.512,0.666c-0.108,0.038 -0.197,-0.017 -0.235,-0.089c-0.539,-0.973 -1.277,-1.512 -2.466,-1.512c-1.243,0 -1.963,0.611 -2.305,1.601c-0.145,0.452 -0.215,1.063 -0.215,2.809c0,1.729 0.07,2.359 0.215,2.809c0.342,0.992 1.062,1.603 2.305,1.603c1.08,0 1.998,-0.541 2.322,-1.531c0.127,-0.377 0.199,-0.881 0.199,-1.584c0,-0.072 -0.037,-0.108 -0.109,-0.108l-2.016,0c-0.107,0 -0.18,-0.072 -0.18,-0.179l0,-1.442c0,-0.107 0.073,-0.179 0.18,-0.179l4.051,0c0.109,0 0.18,0.072 0.18,0.179l0,1.063c0,1.008 -0.09,2.07 -0.288,2.683c-0.593,1.909 -2.214,3.006 -4.322,3.006c-2.16,0 -3.744,-1.008 -4.375,-2.953c-0.252,-0.756 -0.324,-1.439 -0.324,-3.367" style="fill:#fff;fill-rule:nonzero;"/><path d="M158.785,100.608c-0.072,-0.07 -0.107,-0.18 -0.035,-0.27l1.115,-1.296c0.072,-0.09 0.182,-0.09 0.252,-0.018c0.793,0.631 1.963,1.297 3.332,1.297c1.459,0 2.305,-0.738 2.305,-1.764c0,-0.883 -0.541,-1.459 -2.233,-1.693l-0.648,-0.09c-2.359,-0.324 -3.692,-1.459 -3.692,-3.494c0,-2.213 1.622,-3.69 4.141,-3.69c1.531,0 2.99,0.485 3.963,1.223c0.09,0.072 0.107,0.145 0.035,0.254l-0.865,1.332c-0.07,0.09 -0.16,0.107 -0.252,0.053c-0.99,-0.649 -1.908,-0.953 -2.934,-0.953c-1.242,0 -1.927,0.683 -1.927,1.638c0,0.846 0.595,1.422 2.252,1.657l0.648,0.089c2.357,0.325 3.654,1.44 3.654,3.547c0,2.178 -1.566,3.799 -4.609,3.799c-1.801,0 -3.547,-0.721 -4.502,-1.621" style="fill:#fff;fill-rule:nonzero;"/><path d="M46.123,44.526c0,0 1.855,-1.875 3.959,-3.041c2.373,-1.315 7.137,-1.461 7.137,-1.461l-5.436,3.187l-2.793,3.947c0,0 0.717,2.264 1.903,3.31c1.417,1.25 3.724,1.184 3.724,1.184c0,0 -1.357,0.802 -1.91,1.478c-0.412,0.505 -0.668,1.17 -0.668,1.17l-1.83,-2.872l-3.815,-1.943l-4.359,2.932l-3.045,4.611c0,0 0.51,-4.09 1.176,-5.565c1.355,-3.005 3.996,-5.128 3.996,-5.128l-0.727,-1.934l-1.787,-1.264c0,0 1.643,-0.152 2.918,0.215c0.44,0.126 1.557,1.174 1.557,1.174" style="fill:#fff;fill-rule:nonzero;"/><path d="M63.193,43.561c0,0 1.584,-1.6 3.379,-2.594c2.023,-1.123 6.088,-1.247 6.088,-1.247l-4.639,2.72l-2.381,3.367c0,0 0.612,1.932 1.623,2.824c1.209,1.067 3.178,1.01 3.178,1.01c0,0 -1.16,0.684 -1.631,1.262c-0.349,0.431 -0.57,0.998 -0.57,0.998l-1.561,-2.45l-3.254,-1.659l-3.72,2.501l-2.598,3.935c0,0 0.436,-3.489 1.004,-4.747c1.156,-2.566 3.41,-4.377 3.41,-4.377l-0.619,-1.648l-1.527,-1.079c0,0 1.402,-0.13 2.492,0.182c0.373,0.108 1.326,1.002 1.326,1.002" style="fill:#fff;fill-rule:nonzero;"/><path d="M45.219,60.628c0,0 1.584,-1.6 3.377,-2.594c2.023,-1.123 6.088,-1.247 6.088,-1.247l-4.637,2.72l-2.381,3.367c0,0 0.61,1.932 1.623,2.824c1.209,1.067 3.178,1.01 3.178,1.01c0,0 -1.16,0.684 -1.631,1.262c-0.351,0.431 -0.57,0.998 -0.57,0.998l-1.563,-2.45l-3.254,-1.659l-3.718,2.501l-2.598,3.935c0,0 0.436,-3.489 1.002,-4.747c1.156,-2.566 3.41,-4.377 3.41,-4.377l-0.619,-1.648l-1.525,-1.079c0,0 1.4,-0.13 2.49,0.182c0.375,0.108 1.328,1.002 1.328,1.002" style="fill:#fff;fill-rule:nonzero;"/><path d="M44.482,74.108c0,0 1.32,-1.333 2.816,-2.162c1.688,-0.936 5.075,-1.039 5.075,-1.039l-3.866,2.265l-1.984,2.809c0,0 0.508,1.609 1.352,2.354c1.007,0.888 2.65,0.841 2.65,0.841c0,0 -0.967,0.571 -1.359,1.053c-0.293,0.358 -0.477,0.832 -0.477,0.832l-1.301,-2.045l-2.713,-1.381l-3.101,2.086l-2.164,3.278c0,0 0.363,-2.909 0.836,-3.955c0.963,-2.141 2.841,-3.649 2.841,-3.649l-0.515,-1.375l-1.274,-0.899c0,0 1.17,-0.109 2.079,0.152c0.31,0.09 1.105,0.835 1.105,0.835" style="fill:#fff;fill-rule:nonzero;"/><path d="M43.893,85.489c0,0 1.129,-1.141 2.41,-1.852c1.445,-0.8 4.344,-0.888 4.344,-0.888l-3.309,1.939l-1.699,2.405c0,0 0.436,1.378 1.158,2.015c0.864,0.762 2.268,0.721 2.268,0.721c0,0 -0.826,0.488 -1.164,0.9c-0.25,0.307 -0.406,0.713 -0.406,0.713l-1.116,-1.75l-2.322,-1.183l-2.654,1.785l-1.854,2.806c0,0 0.311,-2.488 0.715,-3.386c0.826,-1.832 2.436,-3.123 2.436,-3.123l-0.444,-1.178l-1.088,-0.77c0,0 1,-0.091 1.778,0.131c0.265,0.076 0.947,0.715 0.947,0.715" style="fill:#fff;fill-rule:nonzero;"/><path d="M56.412,82.206c0,0 0.963,-0.973 2.057,-1.578c1.23,-0.686 3.705,-0.76 3.705,-0.76l-2.823,1.654l-1.449,2.053c0,0 0.371,1.174 0.987,1.717c0.736,0.65 1.935,0.617 1.935,0.617c0,0 -0.705,0.416 -0.992,0.768c-0.215,0.261 -0.348,0.607 -0.348,0.607l-0.951,-1.492l-1.98,-1.01l-2.266,1.522l-1.58,2.394c0,0 0.264,-2.123 0.609,-2.888c0.705,-1.563 2.076,-2.665 2.076,-2.665l-0.376,-1.003l-0.928,-0.659c0,0 0.851,-0.078 1.515,0.114c0.227,0.064 0.809,0.609 0.809,0.609" style="fill:#fff;fill-rule:nonzero;"/><path d="M71.725,67.663c0,0 0.963,-0.974 2.057,-1.579c1.23,-0.685 3.705,-0.76 3.705,-0.76l-2.823,1.654l-1.449,2.053c0,0 0.371,1.175 0.987,1.717c0.736,0.651 1.935,0.617 1.935,0.617c0,0 -0.705,0.416 -0.992,0.768c-0.215,0.261 -0.348,0.608 -0.348,0.608l-0.951,-1.493l-1.98,-1.01l-2.266,1.523l-1.58,2.394c0,0 0.264,-2.124 0.609,-2.888c0.705,-1.563 2.076,-2.666 2.076,-2.666l-0.376,-1.003l-0.928,-0.658c0,0 0.851,-0.078 1.515,0.113c0.227,0.064 0.809,0.61 0.809,0.61" style="fill:#fff;fill-rule:nonzero;"/><path d="M59.035,70.347c0,0 1.129,-1.141 2.41,-1.852c1.444,-0.8 4.344,-0.889 4.344,-0.889l-3.309,1.94l-1.699,2.405c0,0 0.436,1.377 1.158,2.014c0.862,0.762 2.268,0.721 2.268,0.721c0,0 -0.828,0.488 -1.164,0.9c-0.25,0.307 -0.408,0.713 -0.408,0.713l-1.114,-1.75l-2.322,-1.183l-2.654,1.785l-1.854,2.806c0,0 0.311,-2.488 0.715,-3.386c0.826,-1.831 2.434,-3.122 2.434,-3.122l-0.442,-1.178l-1.09,-0.77c0,0 1,-0.091 1.778,0.131c0.267,0.076 0.949,0.715 0.949,0.715" style="fill:#fff;fill-rule:nonzero;"/><path d="M77.096,55.161c0,0 1.131,-1.141 2.41,-1.852c1.445,-0.8 4.346,-0.888 4.346,-0.888l-3.311,1.939l-1.697,2.405c0,0 0.434,1.378 1.156,2.015c0.864,0.762 2.27,0.721 2.27,0.721c0,0 -0.828,0.488 -1.164,0.9c-0.25,0.307 -0.408,0.713 -0.408,0.713l-1.114,-1.75l-2.322,-1.183l-2.656,1.785l-1.854,2.806c0,0 0.311,-2.488 0.717,-3.386c0.824,-1.832 2.434,-3.123 2.434,-3.123l-0.444,-1.178l-1.088,-0.77c0,0 1,-0.091 1.778,0.131c0.267,0.076 0.947,0.715 0.947,0.715" style="fill:#fff;fill-rule:nonzero;"/><path d="M94.565,42.147c0,0 1.129,-1.141 2.41,-1.852c1.445,-0.8 4.344,-0.889 4.344,-0.889l-3.309,1.94l-1.699,2.405c0,0 0.436,1.377 1.158,2.014c0.864,0.763 2.268,0.722 2.268,0.722c0,0 -0.826,0.488 -1.164,0.9c-0.25,0.307 -0.406,0.713 -0.406,0.713l-1.116,-1.75l-2.322,-1.184l-2.654,1.786l-1.854,2.806c0,0 0.311,-2.488 0.715,-3.386c0.826,-1.832 2.436,-3.123 2.436,-3.123l-0.444,-1.178l-1.088,-0.77c0,0 1,-0.091 1.778,0.131c0.265,0.076 0.947,0.715 0.947,0.715" style="fill:#fff;fill-rule:nonzero;"/><path d="M80.723,42.657c0,0 1.32,-1.333 2.814,-2.162c1.688,-0.936 5.077,-1.039 5.077,-1.039l-3.868,2.265l-1.984,2.809c0,0 0.51,1.609 1.354,2.354c1.007,0.888 2.648,0.841 2.648,0.841c0,0 -0.967,0.571 -1.359,1.053c-0.293,0.358 -0.475,0.832 -0.475,0.832l-1.303,-2.045l-2.713,-1.381l-3.099,2.086l-2.166,3.278c0,0 0.363,-2.909 0.836,-3.955c0.965,-2.141 2.843,-3.649 2.843,-3.649l-0.517,-1.375l-1.272,-0.899c0,0 1.168,-0.109 2.077,0.152c0.312,0.09 1.107,0.835 1.107,0.835" style="fill:#fff;fill-rule:nonzero;"/><path d="M62.166,56.682c0,0 1.32,-1.334 2.816,-2.164c1.688,-0.936 5.077,-1.039 5.077,-1.039l-3.868,2.267l-1.984,2.807c0,0 0.508,1.611 1.352,2.356c1.007,0.888 2.65,0.841 2.65,0.841c0,0 -0.967,0.569 -1.359,1.051c-0.293,0.36 -0.477,0.832 -0.477,0.832l-1.301,-2.043l-2.713,-1.383l-3.101,2.086l-2.164,3.28c0,0 0.363,-2.909 0.836,-3.957c0.963,-2.139 2.841,-3.649 2.841,-3.649l-0.515,-1.375l-1.272,-0.898c0,0 1.168,-0.109 2.077,0.152c0.31,0.09 1.105,0.836 1.105,0.836" style="fill:#fff;fill-rule:nonzero;"/><path d="M43.398,95.456c0,0 0.963,-0.973 2.055,-1.578c1.232,-0.686 3.707,-0.76 3.707,-0.76l-2.824,1.654l-1.448,2.053c0,0 0.371,1.174 0.987,1.717c0.736,0.65 1.935,0.617 1.935,0.617c0,0 -0.707,0.416 -0.992,0.768c-0.215,0.261 -0.348,0.607 -0.348,0.607l-0.951,-1.492l-1.98,-1.01l-2.266,1.522l-1.582,2.394c0,0 0.266,-2.123 0.611,-2.888c0.705,-1.563 2.076,-2.665 2.076,-2.665l-0.376,-1.003l-0.93,-0.659c0,0 0.853,-0.078 1.517,0.114c0.227,0.064 0.809,0.609 0.809,0.609" style="fill:#fff;fill-rule:nonzero;"/></g></svg>