<?xml version="1.0" encoding="UTF-8" standalone="no"?><!DOCTYPE svg PUBLIC "-//W3C//DTD SVG 1.1//EN" "http://www.w3.org/Graphics/SVG/1.1/DTD/svg11.dtd"><svg width="100%" height="100%" viewBox="0 0 202 203" version="1.1" xmlns="http://www.w3.org/2000/svg" xmlns:xlink="http://www.w3.org/1999/xlink" xml:space="preserve" xmlns:serif="http://www.serif.com/" style="fill-rule:evenodd;clip-rule:evenodd;stroke-linejoin:round;stroke-miterlimit:2;"><rect id="Artboard1" x="0" y="0" width="202" height="202.74" style="fill:none;"/><g id="Layer-1" serif:id="Layer 1"><path d="M23.019,16.523c0,0 5.987,-6.051 12.777,-9.814c7.658,-4.243 23.032,-4.715 23.032,-4.715l-17.543,10.285l-9.013,12.738c0,0 2.313,7.306 6.141,10.682c4.573,4.034 12.018,3.821 12.018,3.821c0,0 -4.379,2.588 -6.164,4.77c-1.33,1.629 -2.156,3.775 -2.156,3.775l-5.906,-9.268l-12.311,-6.27l-14.067,9.462l-9.827,14.88c0,0 1.646,-13.199 3.795,-17.959c4.373,-9.698 12.896,-16.549 12.896,-16.549l-2.346,-6.241l-5.767,-4.079c0,0 5.302,-0.491 9.417,0.693c1.42,0.407 5.024,3.789 5.024,3.789" style="fill:#fff;fill-rule:nonzero;"/><path d="M78.107,13.409c0,0 5.112,-5.164 10.904,-8.371c6.529,-3.625 19.647,-4.025 19.647,-4.025l-14.97,8.778l-7.684,10.866c0,0 1.975,6.235 5.237,9.114c3.902,3.443 10.256,3.259 10.256,3.259c0,0 -3.743,2.207 -5.263,4.073c-1.126,1.391 -1.84,3.22 -1.84,3.22l-5.037,-7.906l-10.501,-5.354l-12.005,8.071l-8.385,12.699c0,0 1.407,-11.26 3.24,-15.319c3.731,-8.281 11.005,-14.126 11.005,-14.126l-1.998,-5.318l-4.927,-3.482c0,0 4.524,-0.42 8.042,0.587c1.203,0.349 4.279,3.234 4.279,3.234" style="fill:#fff;fill-rule:nonzero;"/><path d="M20.102,68.487c0,0 5.112,-5.164 10.898,-8.372c6.529,-3.624 19.647,-4.024 19.647,-4.024l-14.964,8.778l-7.684,10.866c0,0 1.968,6.235 5.237,9.113c3.902,3.444 10.256,3.26 10.256,3.26c0,0 -3.743,2.207 -5.263,4.073c-1.133,1.39 -1.84,3.22 -1.84,3.22l-5.044,-7.906l-10.501,-5.354l-11.998,8.071l-8.385,12.699c0,0 1.408,-11.26 3.234,-15.319c3.731,-8.281 11.005,-14.126 11.005,-14.126l-1.998,-5.318l-4.921,-3.482c0,0 4.518,-0.42 8.035,0.587c1.21,0.349 4.286,3.234 4.286,3.234" style="fill:#fff;fill-rule:nonzero;"/><path d="M17.724,111.989c0,0 4.259,-4.302 9.087,-6.977c5.448,-3.021 16.378,-3.353 16.378,-3.353l-12.476,7.309l-6.403,9.065c0,0 1.64,5.193 4.363,7.597c3.25,2.866 8.552,2.714 8.552,2.714c0,0 -3.12,1.843 -4.385,3.398c-0.946,1.156 -1.54,2.685 -1.54,2.685l-4.198,-6.599l-8.756,-4.457l-10.007,6.732l-6.984,10.578c0,0 1.172,-9.387 2.698,-12.763c3.108,-6.909 9.169,-11.776 9.169,-11.776l-1.662,-4.437l-4.112,-2.901c0,0 3.776,-0.352 6.71,0.49c1,0.291 3.566,2.695 3.566,2.695" style="fill:#fff;fill-rule:nonzero;"/><path d="M15.823,148.717c0,0 3.643,-3.682 7.777,-5.977c4.663,-2.581 14.019,-2.865 14.019,-2.865l-10.679,6.257l-5.483,7.761c0,0 1.407,4.447 3.737,6.503c2.789,2.459 7.32,2.327 7.32,2.327c0,0 -2.666,1.575 -3.757,2.904c-0.807,0.991 -1.31,2.301 -1.31,2.301l-3.602,-5.647l-7.493,-3.818l-8.565,5.761l-5.983,9.055c0,0 1.004,-8.029 2.307,-10.927c2.666,-5.912 7.862,-10.079 7.862,-10.079l-1.433,-3.801l-3.511,-2.485c0,0 3.227,-0.294 5.738,0.423c0.855,0.245 3.056,2.307 3.056,2.307" style="fill:#fff;fill-rule:nonzero;"/><path d="M56.224,138.122c0,0 3.107,-3.14 6.638,-5.092c3.969,-2.214 11.956,-2.453 11.956,-2.453l-9.11,5.338l-4.676,6.625c0,0 1.197,3.789 3.185,5.541c2.375,2.098 6.245,1.992 6.245,1.992c0,0 -2.275,1.342 -3.202,2.478c-0.693,0.842 -1.123,1.959 -1.123,1.959l-3.069,-4.815l-6.389,-3.259l-7.313,4.911l-5.099,7.726c0,0 0.852,-6.851 1.965,-9.32c2.275,-5.044 6.7,-8.6 6.7,-8.6l-1.214,-3.237l-2.994,-2.127c0,0 2.746,-0.252 4.889,0.368c0.732,0.207 2.611,1.965 2.611,1.965" style="fill:#fff;fill-rule:nonzero;"/><path d="M105.641,91.19c0,0 3.108,-3.143 6.638,-5.096c3.97,-2.21 11.957,-2.453 11.957,-2.453l-9.11,5.338l-4.677,6.626c0,0 1.198,3.791 3.186,5.541c2.375,2.1 6.244,1.991 6.244,1.991c0,0 -2.275,1.342 -3.201,2.478c-0.694,0.842 -1.123,1.962 -1.123,1.962l-3.069,-4.818l-6.39,-3.259l-7.313,4.915l-5.099,7.726c0,0 0.852,-6.855 1.966,-9.321c2.275,-5.044 6.699,-8.603 6.699,-8.603l-1.213,-3.237l-2.995,-2.123c0,0 2.746,-0.252 4.889,0.364c0.733,0.207 2.611,1.969 2.611,1.969" style="fill:#fff;fill-rule:nonzero;"/><path d="M64.688,99.851c0,0 3.644,-3.682 7.778,-5.976c4.66,-2.582 14.019,-2.869 14.019,-2.869l-10.679,6.261l-5.483,7.761c0,0 1.407,4.444 3.737,6.499c2.782,2.459 7.319,2.327 7.319,2.327c0,0 -2.672,1.575 -3.756,2.905c-0.807,0.99 -1.317,2.301 -1.317,2.301l-3.595,-5.648l-7.493,-3.818l-8.565,5.761l-5.983,9.055c0,0 1.003,-8.029 2.307,-10.927c2.666,-5.909 7.855,-10.075 7.855,-10.075l-1.426,-3.802l-3.518,-2.485c0,0 3.227,-0.293 5.738,0.423c0.861,0.245 3.062,2.307 3.062,2.307" style="fill:#fff;fill-rule:nonzero;"/><path d="M122.974,50.844c0,0 3.65,-3.682 7.778,-5.977c4.663,-2.582 14.025,-2.866 14.025,-2.866l-10.685,6.258l-5.477,7.761c0,0 1.401,4.447 3.731,6.503c2.788,2.459 7.325,2.327 7.325,2.327c0,0 -2.672,1.575 -3.756,2.904c-0.807,0.991 -1.317,2.301 -1.317,2.301l-3.595,-5.647l-7.493,-3.818l-8.572,5.76l-5.983,9.056c0,0 1.004,-8.029 2.314,-10.927c2.659,-5.913 7.855,-10.079 7.855,-10.079l-1.433,-3.801l-3.511,-2.485c0,0 3.227,-0.294 5.738,0.422c0.862,0.246 3.056,2.308 3.056,2.308" style="fill:#fff;fill-rule:nonzero;"/><path d="M179.349,8.846c0,0 3.644,-3.683 7.778,-5.977c4.663,-2.582 14.019,-2.869 14.019,-2.869l-10.679,6.261l-5.483,7.761c0,0 1.407,4.444 3.737,6.499c2.788,2.463 7.319,2.331 7.319,2.331c0,0 -2.665,1.574 -3.756,2.904c-0.807,0.991 -1.31,2.301 -1.31,2.301l-3.602,-5.648l-7.493,-3.821l-8.565,5.764l-5.983,9.056c0,0 1.003,-8.03 2.307,-10.928c2.666,-5.912 7.861,-10.078 7.861,-10.078l-1.433,-3.802l-3.511,-2.485c0,0 3.227,-0.293 5.738,0.423c0.855,0.245 3.056,2.308 3.056,2.308" style="fill:#fff;fill-rule:nonzero;"/><path d="M134.679,10.491c0,0 4.26,-4.301 9.081,-6.977c5.448,-3.02 16.384,-3.353 16.384,-3.353l-12.482,7.31l-6.403,9.065c0,0 1.646,5.192 4.37,7.597c3.249,2.865 8.545,2.714 8.545,2.714c0,0 -3.12,1.842 -4.385,3.398c-0.946,1.155 -1.533,2.685 -1.533,2.685l-4.205,-6.6l-8.756,-4.456l-10.001,6.732l-6.99,10.578c0,0 1.172,-9.388 2.698,-12.763c3.114,-6.91 9.175,-11.776 9.175,-11.776l-1.668,-4.437l-4.105,-2.902c0,0 3.769,-0.351 6.703,0.491c1.006,0.29 3.572,2.694 3.572,2.694" style="fill:#fff;fill-rule:nonzero;"/><path d="M74.793,55.752c0,0 4.259,-4.305 9.087,-6.983c5.448,-3.021 16.385,-3.353 16.385,-3.353l-12.483,7.316l-6.403,9.058c0,0 1.64,5.199 4.363,7.604c3.25,2.865 8.552,2.714 8.552,2.714c0,0 -3.12,1.836 -4.385,3.391c-0.946,1.162 -1.54,2.685 -1.54,2.685l-4.198,-6.593l-8.756,-4.463l-10.007,6.732l-6.984,10.585c0,0 1.172,-9.388 2.698,-12.77c3.108,-6.903 9.169,-11.776 9.169,-11.776l-1.662,-4.437l-4.105,-2.898c0,0 3.769,-0.352 6.703,0.49c1,0.291 3.566,2.698 3.566,2.698" style="fill:#fff;fill-rule:nonzero;"/><path d="M14.225,180.882c0,0 3.108,-3.14 6.632,-5.092c3.976,-2.214 11.963,-2.453 11.963,-2.453l-9.113,5.338l-4.673,6.625c0,0 1.197,3.789 3.185,5.541c2.375,2.098 6.245,1.991 6.245,1.991c0,0 -2.282,1.343 -3.202,2.479c-0.694,0.842 -1.123,1.959 -1.123,1.959l-3.069,-4.815l-6.39,-3.26l-7.312,4.912l-5.106,7.726c0,0 0.859,-6.851 1.972,-9.32c2.275,-5.044 6.7,-8.601 6.7,-8.601l-1.214,-3.236l-3.001,-2.127c0,0 2.753,-0.252 4.896,0.368c0.732,0.206 2.61,1.965 2.61,1.965" style="fill:#fff;fill-rule:nonzero;"/></g></svg>