<?xml version="1.0" encoding="UTF-8" standalone="no"?><!DOCTYPE svg PUBLIC "-//W3C//DTD SVG 1.1//EN" "http://www.w3.org/Graphics/SVG/1.1/DTD/svg11.dtd"><svg width="100%" height="100%" viewBox="0 0 416 203" version="1.1" xmlns="http://www.w3.org/2000/svg" xmlns:xlink="http://www.w3.org/1999/xlink" xml:space="preserve" xmlns:serif="http://www.serif.com/" style="fill-rule:evenodd;clip-rule:evenodd;stroke-linejoin:round;stroke-miterlimit:2;"><rect id="Artboard1" x="0" y="0" width="416" height="202.74" style="fill:none;"/><g id="Artboard11" serif:id="Artboard1"><g id="Layer-1" serif:id="Layer 1"><path d="M322.471,103.45l-0.159,0l-9.523,6.738c-0.39,0.316 -0.852,0.158 -0.852,-0.461l0,-3.253c0,-0.539 0.152,-0.856 0.542,-1.165l9.759,-7.045c0.391,-0.31 0.7,-0.468 1.165,-0.468l2.479,0c0.458,0 0.774,0.31 0.774,0.774l0,51.125c0,0.468 -0.316,0.774 -0.774,0.774l-2.637,0c-0.465,0 -0.774,-0.306 -0.774,-0.774l0,-46.245Z" style="fill:#fff;fill-rule:nonzero;"/><path d="M356.627,147.294c4.644,0 7.981,-2.017 9.449,-6.429c0.542,-1.704 1.084,-4.569 1.084,-16.736c0,-12.156 -0.542,-15.025 -1.084,-16.726c-1.468,-4.415 -4.805,-6.432 -9.449,-6.432c-4.644,0 -7.981,2.017 -9.449,6.432c-0.543,1.701 -1.085,4.57 -1.085,16.726c0,12.167 0.542,15.032 1.085,16.736c1.468,4.412 4.805,6.429 9.449,6.429m-14.719,-23.165c0,-12.624 0.542,-15.8 1.168,-17.652c2.01,-6.122 6.89,-9.456 13.551,-9.456c6.661,0 11.54,3.334 13.557,9.456c0.62,1.852 1.162,5.028 1.162,17.652c0,12.631 -0.542,15.804 -1.162,17.663c-2.017,6.118 -6.896,9.455 -13.557,9.455c-6.661,0 -11.541,-3.337 -13.551,-9.455c-0.626,-1.859 -1.168,-5.032 -1.168,-17.663" style="fill:#fff;fill-rule:nonzero;"/><path d="M397.831,147.294c4.644,0 7.981,-2.017 9.449,-6.429c0.542,-1.704 1.085,-4.569 1.085,-16.736c0,-12.156 -0.543,-15.025 -1.085,-16.726c-1.468,-4.415 -4.805,-6.432 -9.449,-6.432c-4.644,0 -7.981,2.017 -9.449,6.432c-0.542,1.701 -1.084,4.57 -1.084,16.726c0,12.167 0.542,15.032 1.084,16.736c1.468,4.412 4.805,6.429 9.449,6.429m-14.719,-23.165c0,-12.624 0.542,-15.8 1.168,-17.652c2.011,-6.122 6.89,-9.456 13.551,-9.456c6.661,0 11.54,3.334 13.557,9.456c0.62,1.852 1.162,5.028 1.162,17.652c0,12.631 -0.542,15.804 -1.162,17.663c-2.017,6.118 -6.896,9.455 -13.557,9.455c-6.661,0 -11.54,-3.337 -13.551,-9.455c-0.626,-1.859 -1.168,-5.032 -1.168,-17.663" style="fill:#fff;fill-rule:nonzero;"/><path d="M118.814,197.509c-0.232,-0.226 -0.345,-0.581 -0.113,-0.872l3.599,-4.182c0.232,-0.291 0.587,-0.291 0.813,-0.058c2.559,2.036 6.335,4.185 10.753,4.185c4.708,0 7.438,-2.381 7.438,-5.692c0,-2.85 -1.746,-4.709 -7.206,-5.464l-2.091,-0.29c-7.613,-1.046 -11.915,-4.709 -11.915,-11.276c0,-7.142 5.235,-11.908 13.364,-11.908c4.941,0 9.649,1.565 12.789,3.946c0.291,0.233 0.345,0.468 0.113,0.82l-2.791,4.299c-0.226,0.29 -0.517,0.345 -0.814,0.171c-3.195,-2.095 -6.157,-3.076 -9.468,-3.076c-4.008,0 -6.219,2.204 -6.219,5.286c0,2.731 1.92,4.589 7.268,5.348l2.091,0.287c7.606,1.049 11.792,4.647 11.792,11.447c0,7.029 -5.054,12.26 -14.874,12.26c-5.812,0 -11.447,-2.327 -14.529,-5.231" style="fill:#fff;fill-rule:nonzero;"/><path d="M165.23,202.104c-0.348,0 -0.584,-0.232 -0.584,-0.581l0,-32.43c0,-0.226 -0.113,-0.345 -0.345,-0.345l-10.343,0c-0.355,0 -0.581,-0.232 -0.581,-0.581l0.003,-4.995c-0.003,-0.349 0.223,-0.581 0.578,-0.581l28.238,0c0.345,0 0.577,0.232 0.577,0.581l0,4.995c0,0.349 -0.232,0.581 -0.577,0.581l-10.343,0c-0.236,0 -0.349,0.119 -0.349,0.345l0,32.43c0,0.349 -0.232,0.581 -0.574,0.581l-5.703,0l0.003,0Z" style="fill:#fff;fill-rule:nonzero;"/><path d="M205.26,187.753l-5.231,-15.342l-0.178,0l-5.282,15.342l10.691,0Zm-8.662,-24.581c0.123,-0.349 0.349,-0.581 0.759,-0.581l5.344,0c0.41,0 0.642,0.232 0.755,0.581l13.364,38.354c0.119,0.346 0,0.578 -0.404,0.578l-5.699,0c-0.403,0 -0.635,-0.174 -0.755,-0.578l-2.611,-7.671l-14.874,0l-2.614,7.671c-0.122,0.404 -0.355,0.578 -0.758,0.578l-5.635,0c-0.409,0 -0.522,-0.232 -0.409,-0.578l13.537,-38.354Z" style="fill:#fff;fill-rule:nonzero;"/><path d="M245.341,174.383c0,-3.428 -2.439,-5.635 -6.044,-5.635l-8.426,0c-0.236,0 -0.349,0.119 -0.349,0.345l0,10.521c0,0.232 0.113,0.348 0.349,0.348l8.426,0c3.605,0 6.044,-2.207 6.044,-5.579m0.756,27.721c-0.465,0 -0.697,-0.178 -0.875,-0.581l-7.552,-15.397l-6.799,0c-0.236,0 -0.349,0.113 -0.349,0.346l0,15.051c0,0.349 -0.232,0.581 -0.577,0.581l-5.699,0c-0.349,0 -0.581,-0.232 -0.581,-0.581l0,-38.355c0,-0.345 0.232,-0.577 0.581,-0.577l15.283,0c7.261,0 12.606,4.821 12.606,11.792c0,5.176 -2.963,9.184 -7.494,10.866l8.307,16.097c0.235,0.403 0,0.758 -0.404,0.758l-6.447,0Z" style="fill:#fff;fill-rule:nonzero;"/><path d="M261.074,163.172c0,-0.349 0.232,-0.585 0.581,-0.585l5.696,0c0.348,0 0.581,0.236 0.581,0.581l0,32.424c0,0.232 0.112,0.351 0.345,0.351l18.136,0.004c0.346,-0.004 0.578,0.225 0.578,0.577l0,4.999c0,0.345 -0.232,0.578 -0.578,0.578l-24.758,0c-0.349,0 -0.581,-0.233 -0.581,-0.578l0,-38.355l0,0.004Z" style="fill:#fff;fill-rule:nonzero;"/><path d="M294.181,163.172c0,-0.349 0.233,-0.585 0.581,-0.585l5.696,0c0.349,0 0.581,0.236 0.581,0.581l0,38.355c0,0.345 -0.232,0.578 -0.581,0.578l-5.696,0c-0.348,0 -0.581,-0.233 -0.581,-0.578l0,-38.355l0,0.004Z" style="fill:#fff;fill-rule:nonzero;"/><path d="M311.201,163.172c0,-0.349 0.233,-0.585 0.581,-0.585l5.344,0c0.465,0 0.755,0.178 0.991,0.581l16.097,27.254l0.232,0l0,-27.254c0,-0.345 0.233,-0.581 0.581,-0.581l5.054,0c0.349,0 0.581,0.236 0.581,0.581l0,38.355c0,0.345 -0.232,0.578 -0.581,0.578l-5.286,0c-0.468,0 -0.758,-0.175 -0.991,-0.578l-16.155,-27.198l-0.226,0l0,27.198c0,0.345 -0.235,0.578 -0.587,0.578l-5.054,0c-0.348,0 -0.581,-0.233 -0.581,-0.578l0,-38.355l0,0.004Z" style="fill:#fff;fill-rule:nonzero;"/><path d="M349.656,182.344c0,-6.215 0.232,-8.42 1.046,-10.866c2.036,-6.273 7.148,-9.523 14.119,-9.523c7.38,0 12.147,3.943 13.773,8.361c0.119,0.291 0.055,0.639 -0.232,0.814l-4.88,2.149c-0.348,0.123 -0.636,-0.055 -0.758,-0.287c-1.74,-3.14 -4.121,-4.88 -7.958,-4.88c-4.012,0 -6.335,1.972 -7.439,5.167c-0.468,1.459 -0.694,3.43 -0.694,9.065c0,5.58 0.226,7.613 0.694,9.065c1.104,3.202 3.427,5.173 7.439,5.173c3.485,0 6.448,-1.746 7.493,-4.94c0.41,-1.217 0.642,-2.844 0.642,-5.112c0,-0.233 -0.119,-0.349 -0.351,-0.349l-6.506,0c-0.346,0 -0.581,-0.232 -0.581,-0.577l0,-4.654c0,-0.345 0.235,-0.578 0.581,-0.578l13.073,0c0.352,0 0.581,0.233 0.581,0.578l0,3.43c0,3.253 -0.291,6.681 -0.93,8.659c-1.913,6.161 -7.145,9.701 -13.947,9.701c-6.971,0 -12.083,-3.253 -14.119,-9.53c-0.814,-2.44 -1.046,-4.644 -1.046,-10.866" style="fill:#fff;fill-rule:nonzero;"/><path d="M386.597,197.509c-0.232,-0.226 -0.345,-0.581 -0.113,-0.872l3.599,-4.182c0.232,-0.291 0.587,-0.291 0.813,-0.058c2.559,2.036 6.335,4.185 10.753,4.185c4.708,0 7.438,-2.381 7.438,-5.692c0,-2.85 -1.745,-4.709 -7.206,-5.464l-2.091,-0.29c-7.613,-1.046 -11.915,-4.709 -11.915,-11.276c0,-7.142 5.235,-11.908 13.364,-11.908c4.941,0 9.649,1.565 12.789,3.946c0.291,0.233 0.346,0.468 0.113,0.82l-2.791,4.299c-0.226,0.29 -0.517,0.345 -0.814,0.171c-3.194,-2.095 -6.157,-3.076 -9.468,-3.076c-4.008,0 -6.219,2.204 -6.219,5.286c0,2.731 1.92,4.589 7.268,5.348l2.091,0.287c7.606,1.049 11.792,4.647 11.792,11.447c0,7.029 -5.054,12.26 -14.874,12.26c-5.812,0 -11.447,-2.327 -14.529,-5.231" style="fill:#fff;fill-rule:nonzero;"/><path d="M23.019,16.523c0,0 5.987,-6.051 12.777,-9.814c7.658,-4.243 23.032,-4.715 23.032,-4.715l-17.543,10.285l-9.013,12.738c0,0 2.313,7.306 6.141,10.682c4.573,4.034 12.018,3.821 12.018,3.821c0,0 -4.379,2.588 -6.164,4.77c-1.33,1.629 -2.156,3.775 -2.156,3.775l-5.906,-9.268l-12.311,-6.27l-14.067,9.462l-9.827,14.88c0,0 1.646,-13.199 3.795,-17.959c4.373,-9.698 12.896,-16.549 12.896,-16.549l-2.346,-6.241l-5.767,-4.079c0,0 5.302,-0.491 9.417,0.693c1.42,0.407 5.024,3.789 5.024,3.789" style="fill:#fff;fill-rule:nonzero;"/><path d="M78.107,13.409c0,0 5.112,-5.164 10.904,-8.371c6.529,-3.625 19.647,-4.025 19.647,-4.025l-14.97,8.778l-7.684,10.866c0,0 1.975,6.235 5.237,9.114c3.902,3.443 10.256,3.259 10.256,3.259c0,0 -3.743,2.207 -5.263,4.073c-1.126,1.391 -1.84,3.22 -1.84,3.22l-5.037,-7.906l-10.501,-5.354l-12.005,8.071l-8.385,12.699c0,0 1.407,-11.26 3.24,-15.319c3.731,-8.281 11.005,-14.126 11.005,-14.126l-1.998,-5.318l-4.927,-3.482c0,0 4.524,-0.42 8.042,0.587c1.203,0.349 4.279,3.234 4.279,3.234" style="fill:#fff;fill-rule:nonzero;"/><path d="M20.102,68.487c0,0 5.112,-5.164 10.898,-8.372c6.529,-3.624 19.647,-4.024 19.647,-4.024l-14.964,8.778l-7.684,10.866c0,0 1.968,6.235 5.237,9.113c3.902,3.444 10.256,3.26 10.256,3.26c0,0 -3.743,2.207 -5.263,4.073c-1.133,1.39 -1.84,3.22 -1.84,3.22l-5.044,-7.906l-10.501,-5.354l-11.998,8.071l-8.385,12.699c0,0 1.408,-11.26 3.234,-15.319c3.731,-8.281 11.005,-14.126 11.005,-14.126l-1.998,-5.318l-4.921,-3.482c0,0 4.518,-0.42 8.035,0.587c1.21,0.349 4.286,3.234 4.286,3.234" style="fill:#fff;fill-rule:nonzero;"/><path d="M17.724,111.989c0,0 4.259,-4.302 9.087,-6.977c5.448,-3.021 16.378,-3.353 16.378,-3.353l-12.476,7.309l-6.403,9.065c0,0 1.64,5.193 4.363,7.597c3.25,2.866 8.552,2.714 8.552,2.714c0,0 -3.12,1.843 -4.385,3.398c-0.946,1.156 -1.54,2.685 -1.54,2.685l-4.198,-6.599l-8.756,-4.457l-10.007,6.732l-6.984,10.578c0,0 1.172,-9.387 2.698,-12.763c3.108,-6.909 9.169,-11.776 9.169,-11.776l-1.662,-4.437l-4.112,-2.901c0,0 3.776,-0.352 6.71,0.49c1,0.291 3.566,2.695 3.566,2.695" style="fill:#fff;fill-rule:nonzero;"/><path d="M15.823,148.717c0,0 3.643,-3.682 7.777,-5.977c4.663,-2.581 14.019,-2.865 14.019,-2.865l-10.679,6.257l-5.483,7.761c0,0 1.407,4.447 3.737,6.503c2.789,2.459 7.32,2.327 7.32,2.327c0,0 -2.666,1.575 -3.757,2.904c-0.807,0.991 -1.31,2.301 -1.31,2.301l-3.602,-5.647l-7.493,-3.818l-8.565,5.761l-5.983,9.055c0,0 1.004,-8.029 2.307,-10.927c2.666,-5.912 7.862,-10.079 7.862,-10.079l-1.433,-3.801l-3.511,-2.485c0,0 3.227,-0.294 5.738,0.423c0.855,0.245 3.056,2.307 3.056,2.307" style="fill:#fff;fill-rule:nonzero;"/><path d="M56.224,138.122c0,0 3.107,-3.14 6.638,-5.092c3.969,-2.214 11.956,-2.453 11.956,-2.453l-9.11,5.338l-4.676,6.625c0,0 1.197,3.789 3.185,5.541c2.375,2.098 6.245,1.992 6.245,1.992c0,0 -2.275,1.342 -3.202,2.478c-0.693,0.842 -1.123,1.959 -1.123,1.959l-3.069,-4.815l-6.389,-3.259l-7.313,4.911l-5.099,7.726c0,0 0.852,-6.851 1.965,-9.32c2.275,-5.044 6.7,-8.6 6.7,-8.6l-1.214,-3.237l-2.994,-2.127c0,0 2.746,-0.252 4.889,0.368c0.732,0.207 2.611,1.965 2.611,1.965" style="fill:#fff;fill-rule:nonzero;"/><path d="M105.641,91.19c0,0 3.108,-3.143 6.638,-5.096c3.97,-2.21 11.957,-2.453 11.957,-2.453l-9.11,5.338l-4.677,6.626c0,0 1.198,3.791 3.186,5.541c2.375,2.1 6.244,1.991 6.244,1.991c0,0 -2.275,1.342 -3.201,2.478c-0.694,0.842 -1.123,1.962 -1.123,1.962l-3.069,-4.818l-6.39,-3.259l-7.313,4.915l-5.099,7.726c0,0 0.852,-6.855 1.966,-9.321c2.275,-5.044 6.699,-8.603 6.699,-8.603l-1.213,-3.237l-2.995,-2.123c0,0 2.746,-0.252 4.889,0.364c0.733,0.207 2.611,1.969 2.611,1.969" style="fill:#fff;fill-rule:nonzero;"/><path d="M64.688,99.851c0,0 3.644,-3.682 7.778,-5.976c4.66,-2.582 14.019,-2.869 14.019,-2.869l-10.679,6.261l-5.483,7.761c0,0 1.407,4.444 3.737,6.499c2.782,2.459 7.319,2.327 7.319,2.327c0,0 -2.672,1.575 -3.756,2.905c-0.807,0.99 -1.317,2.301 -1.317,2.301l-3.595,-5.648l-7.493,-3.818l-8.565,5.761l-5.983,9.055c0,0 1.003,-8.029 2.307,-10.927c2.666,-5.909 7.855,-10.075 7.855,-10.075l-1.426,-3.802l-3.518,-2.485c0,0 3.227,-0.293 5.738,0.423c0.861,0.245 3.062,2.307 3.062,2.307" style="fill:#fff;fill-rule:nonzero;"/><path d="M122.974,50.844c0,0 3.65,-3.682 7.778,-5.977c4.663,-2.582 14.025,-2.866 14.025,-2.866l-10.685,6.258l-5.477,7.761c0,0 1.401,4.447 3.731,6.503c2.788,2.459 7.325,2.327 7.325,2.327c0,0 -2.672,1.575 -3.756,2.904c-0.807,0.991 -1.317,2.301 -1.317,2.301l-3.595,-5.647l-7.493,-3.818l-8.572,5.76l-5.983,9.056c0,0 1.004,-8.029 2.314,-10.927c2.659,-5.913 7.855,-10.079 7.855,-10.079l-1.433,-3.801l-3.511,-2.485c0,0 3.227,-0.294 5.738,0.422c0.862,0.246 3.056,2.308 3.056,2.308" style="fill:#fff;fill-rule:nonzero;"/><path d="M179.349,8.846c0,0 3.644,-3.683 7.778,-5.977c4.663,-2.582 14.019,-2.869 14.019,-2.869l-10.679,6.261l-5.483,7.761c0,0 1.407,4.444 3.737,6.499c2.788,2.463 7.319,2.331 7.319,2.331c0,0 -2.665,1.574 -3.756,2.904c-0.807,0.991 -1.31,2.301 -1.31,2.301l-3.602,-5.648l-7.493,-3.821l-8.565,5.764l-5.983,9.056c0,0 1.003,-8.03 2.307,-10.928c2.666,-5.912 7.861,-10.078 7.861,-10.078l-1.433,-3.802l-3.511,-2.485c0,0 3.227,-0.293 5.738,0.423c0.855,0.245 3.056,2.308 3.056,2.308" style="fill:#fff;fill-rule:nonzero;"/><path d="M134.679,10.491c0,0 4.26,-4.301 9.081,-6.977c5.448,-3.02 16.384,-3.353 16.384,-3.353l-12.482,7.31l-6.403,9.065c0,0 1.646,5.192 4.37,7.597c3.249,2.865 8.545,2.714 8.545,2.714c0,0 -3.12,1.842 -4.385,3.398c-0.946,1.155 -1.533,2.685 -1.533,2.685l-4.205,-6.6l-8.756,-4.456l-10.001,6.732l-6.99,10.578c0,0 1.172,-9.388 2.698,-12.763c3.114,-6.91 9.175,-11.776 9.175,-11.776l-1.668,-4.437l-4.105,-2.902c0,0 3.769,-0.351 6.703,0.491c1.006,0.29 3.572,2.694 3.572,2.694" style="fill:#fff;fill-rule:nonzero;"/><path d="M74.793,55.752c0,0 4.259,-4.305 9.087,-6.983c5.448,-3.021 16.385,-3.353 16.385,-3.353l-12.483,7.316l-6.403,9.058c0,0 1.64,5.199 4.363,7.604c3.25,2.865 8.552,2.714 8.552,2.714c0,0 -3.12,1.836 -4.385,3.391c-0.946,1.162 -1.54,2.685 -1.54,2.685l-4.198,-6.593l-8.756,-4.463l-10.007,6.732l-6.984,10.585c0,0 1.172,-9.388 2.698,-12.77c3.108,-6.903 9.169,-11.776 9.169,-11.776l-1.662,-4.437l-4.105,-2.898c0,0 3.769,-0.352 6.703,0.49c1,0.291 3.566,2.698 3.566,2.698" style="fill:#fff;fill-rule:nonzero;"/><path d="M14.225,180.882c0,0 3.108,-3.14 6.632,-5.092c3.976,-2.214 11.963,-2.453 11.963,-2.453l-9.113,5.338l-4.673,6.625c0,0 1.197,3.789 3.185,5.541c2.375,2.098 6.245,1.991 6.245,1.991c0,0 -2.282,1.343 -3.202,2.479c-0.694,0.842 -1.123,1.959 -1.123,1.959l-3.069,-4.815l-6.39,-3.26l-7.312,4.912l-5.106,7.726c0,0 0.859,-6.851 1.972,-9.32c2.275,-5.044 6.7,-8.601 6.7,-8.601l-1.214,-3.236l-3.001,-2.127c0,0 2.753,-0.252 4.896,0.368c0.732,0.206 2.61,1.965 2.61,1.965" style="fill:#fff;fill-rule:nonzero;"/></g></g></svg>